<svg width="14" height="24" viewBox="0 0 14 24" fill="none" xmlns="http://www.w3.org/2000/svg">
<path d="M1.11328 1.18385L1.11328 1.18384C1.5099 0.783167 2.15263 0.78246 2.55138 1.18374C2.55154 1.1839 2.5517 1.18406 2.55185 1.18422L12.4681 11.2456L12.4688 11.2462C12.8547 11.6361 12.8544 12.3212 12.4684 12.7124L12.4682 12.7125L2.55005 22.773C2.15332 23.1738 1.51036 23.1744 1.11163 22.7728C0.710888 22.3677 0.711492 21.7107 1.11148 21.3076L1.11245 21.3066L10.0192 12.272L10.3086 11.9784L10.0192 11.6848L1.11391 2.6502L1.11328 2.64956C0.712525 2.24472 0.712525 1.58869 1.11328 1.18385Z" fill="white" stroke="#fff" stroke-width="0.836429"/>
</svg>
