<svg width="14" height="24" viewBox="0 0 14 24" fill="none" xmlns="http://www.w3.org/2000/svg">
<path d="M12.8221 1.24781L12.8221 1.2478C12.4611 0.883139 11.8765 0.882288 11.5132 1.24771C11.513 1.2479 11.5129 1.24808 11.5127 1.24826L1.59662 11.3094L1.59584 11.3102C1.24509 11.6645 1.24515 12.2927 1.59635 12.6485L1.59657 12.6487L11.5146 22.709C11.5147 22.7091 11.5148 22.7093 11.515 22.7094C11.8761 23.0738 12.4608 23.0744 12.8239 22.7087C13.1895 22.339 13.1887 21.7392 12.824 21.3717L12.8228 21.3705L3.91604 12.3358L3.56369 11.9784L3.91601 11.621L12.8213 2.58637L12.8221 2.5856C13.1878 2.21619 13.1878 1.61722 12.8221 1.24781Z" fill="white" stroke="#fff" stroke-width="1.01826"/>
</svg>
