<svg width="24" height="12" viewBox="0 0 24 12" fill="none" xmlns="http://www.w3.org/2000/svg">
<path d="M22.3249 0.692118L22.3249 0.692121C22.7035 1.02822 22.7042 1.55158 22.325 1.88959C22.3248 1.88973 22.3247 1.88988 22.3245 1.89002L12.2632 10.7837L12.2626 10.7843C11.8681 11.1345 11.159 11.1342 10.7633 10.7839L10.7631 10.7838L0.702688 1.88838C0.702549 1.88826 0.70241 1.88814 0.702272 1.88802C0.323988 1.55179 0.323481 1.02845 0.702976 0.69058C1.11263 0.327164 1.79356 0.32772 2.20112 0.690485L2.20215 0.691397L11.2368 8.67972L11.5138 8.92464L11.7908 8.67975L20.8254 0.692705L20.8261 0.692118C21.2355 0.328627 21.9155 0.328627 22.3249 0.692118Z" fill="white" stroke="black" stroke-width="0.836429"/>
</svg>
