<?xml version="1.0" encoding="UTF-8"?>
<svg xmlns="http://www.w3.org/2000/svg" xmlns:xlink="http://www.w3.org/1999/xlink" width="30px" height="30px" viewBox="0 0 30 30" version="1.1">
<path fill = "#fff" d="M 29.589844 25.9375 L 23.75 20.097656 C 23.484375 19.835938 23.125 19.6875 22.75 19.6875 L 21.796875 19.6875 C 23.414062 17.617188 24.375 15.015625 24.375 12.1875 C 24.375 5.453125 18.921875 0 12.1875 0 C 5.457031 0 0 5.453125 0 12.1875 C 0 18.921875 5.453125 24.375 12.1875 24.375 C 15.015625 24.375 17.617188 23.414062 19.6875 21.796875 L 19.6875 22.75 C 19.6875 23.125 19.835938 23.484375 20.097656 23.75 L 25.9375 29.589844 C 26.488281 30.140625 27.382812 30.140625 27.925781 29.589844 L 29.585938 27.929688 C 30.132812 27.382812 30.132812 26.488281 29.589844 25.9375 Z M 12.1875 19.6875 C 8.046875 19.6875 4.6875 16.335938 4.6875 12.1875 C 4.6875 8.046875 8.039062 4.6875 12.1875 4.6875 C 16.328125 4.6875 19.6875 8.039062 19.6875 12.1875 C 19.6875 16.328125 16.335938 19.6875 12.1875 19.6875 Z M 12.1875 19.6875 "/>
</svg>
