<svg width="1039" height="522" viewBox="0 0 1039 522" fill="none" xmlns="http://www.w3.org/2000/svg">
<rect x="4.27169" y="4.27169" width="1030.33" height="513.457" stroke="white" stroke-width="8.54337"/>
<path d="M321.581 430.86C317.617 430.86 313.772 430.334 310.046 429.284C306.368 428.185 303.407 426.776 301.162 425.056L305.102 416.316C307.252 417.892 309.807 419.157 312.769 420.113C315.73 421.068 318.691 421.546 321.653 421.546C324.948 421.546 327.384 421.068 328.961 420.113C330.537 419.11 331.325 417.796 331.325 416.172C331.325 414.978 330.847 413.999 329.892 413.235C328.985 412.423 327.79 411.778 326.31 411.3C324.877 410.823 322.918 410.297 320.435 409.724C316.614 408.817 313.485 407.909 311.049 407.001C308.613 406.094 306.511 404.637 304.744 402.631C303.025 400.625 302.165 397.95 302.165 394.607C302.165 391.693 302.953 389.066 304.529 386.726C306.105 384.337 308.47 382.451 311.622 381.065C314.822 379.68 318.715 378.988 323.301 378.988C326.501 378.988 329.629 379.37 332.686 380.134C335.743 380.898 338.418 381.997 340.711 383.43L337.128 392.242C332.495 389.615 327.862 388.302 323.229 388.302C319.981 388.302 317.569 388.827 315.993 389.878C314.464 390.929 313.7 392.314 313.7 394.033C313.7 395.753 314.584 397.043 316.351 397.902C318.166 398.714 320.912 399.526 324.59 400.338C328.411 401.246 331.54 402.153 333.976 403.061C336.412 403.968 338.49 405.401 340.209 407.36C341.976 409.318 342.86 411.969 342.86 415.312C342.86 418.178 342.048 420.805 340.424 423.194C338.848 425.534 336.46 427.397 333.259 428.782C330.059 430.167 326.166 430.86 321.581 430.86Z" fill="white"/>
<path d="M411.691 388.305H395.642V378.847H439.346V388.305H423.297V429H411.691V388.305Z" fill="white"/>
<path d="M517.509 430.86C512.303 430.86 507.598 429.737 503.395 427.492C499.239 425.247 495.967 422.167 493.579 418.25C491.239 414.286 490.068 409.843 490.068 404.924C490.068 400.004 491.239 395.586 493.579 391.669C495.967 387.705 499.239 384.6 503.395 382.355C507.598 380.11 512.303 378.988 517.509 378.988C522.715 378.988 527.396 380.11 531.552 382.355C535.707 384.6 538.979 387.705 541.367 391.669C543.755 395.586 544.95 400.004 544.95 404.924C544.95 409.843 543.755 414.286 541.367 418.25C538.979 422.167 535.707 425.247 531.552 427.492C527.396 429.737 522.715 430.86 517.509 430.86ZM517.509 420.973C520.47 420.973 523.145 420.304 525.533 418.966C527.922 417.581 529.784 415.671 531.122 413.235C532.507 410.799 533.2 408.028 533.2 404.924C533.2 401.819 532.507 399.049 531.122 396.613C529.784 394.177 527.922 392.29 525.533 390.953C523.145 389.568 520.47 388.875 517.509 388.875C514.548 388.875 511.873 389.568 509.485 390.953C507.096 392.29 505.21 394.177 503.824 396.613C502.487 399.049 501.818 401.819 501.818 404.924C501.818 408.028 502.487 410.799 503.824 413.235C505.21 415.671 507.096 417.581 509.485 418.966C511.873 420.304 514.548 420.973 517.509 420.973Z" fill="white"/>
<path d="M632.058 430L622.386 416.029H621.813H611.711V430H600.104V379.847H621.813C626.255 379.847 630.1 380.588 633.348 382.069C636.644 383.549 639.175 385.651 640.942 388.373C642.71 391.096 643.593 394.32 643.593 398.046C643.593 401.771 642.686 404.995 640.871 407.718C639.104 410.393 636.572 412.447 633.276 413.88L644.525 430H632.058ZM631.843 398.046C631.843 395.228 630.936 393.078 629.121 391.597C627.306 390.069 624.655 389.305 621.168 389.305H611.711V406.787H621.168C624.655 406.787 627.306 406.022 629.121 404.494C630.936 402.965 631.843 400.816 631.843 398.046Z" fill="white"/>
<path d="M723.811 411.232V429H712.204V411.088L692.788 378.847H705.111L718.509 401.13L731.907 378.847H743.299L723.811 411.232Z" fill="white"/>
<path d="M120.585 267L120.514 236.908L105.755 261.698H100.524L85.8369 237.553V267H74.9467V216.847H84.5473L103.319 248.014L121.803 216.847H131.332L131.476 267H120.585Z" fill="white"/>
<path d="M225.92 256.253H202.635L198.193 267H186.3L208.653 216.847H220.117L242.542 267H230.362L225.92 256.253ZM222.266 247.441L214.313 228.239L206.361 247.441H222.266Z" fill="white"/>
<path d="M328.551 267L316.442 249.59L304.549 267H291.223L309.779 241.494L292.154 216.847H305.337L316.872 233.111L328.192 216.847H340.73L323.249 241.064L341.948 267H328.551Z" fill="white"/>
<path d="M428.769 226.162V239.416H451.983V248.73H428.769V267H417.162V216.847H455.063V226.162H428.769Z" fill="white"/>
<path d="M545.002 256.253H521.717L517.275 267H505.382L527.735 216.847H539.199L561.624 267H549.444L545.002 256.253ZM541.348 247.441L533.395 228.239L525.443 247.441H541.348Z" fill="white"/>
<path d="M640.038 267.86C634.927 267.86 630.294 266.761 626.139 264.564C622.031 262.319 618.783 259.238 616.395 255.322C614.054 251.357 612.884 246.891 612.884 241.924C612.884 236.956 614.054 232.514 616.395 228.597C618.783 224.633 622.031 221.552 626.139 219.355C630.294 217.11 634.951 215.988 640.11 215.988C644.456 215.988 648.373 216.752 651.86 218.28C655.394 219.809 658.356 222.006 660.744 224.872L653.293 231.75C649.901 227.833 645.698 225.875 640.683 225.875C637.578 225.875 634.808 226.568 632.372 227.953C629.936 229.29 628.025 231.177 626.64 233.613C625.303 236.049 624.634 238.819 624.634 241.924C624.634 245.028 625.303 247.799 626.64 250.235C628.025 252.671 629.936 254.581 632.372 255.966C634.808 257.304 637.578 257.973 640.683 257.973C645.698 257.973 649.901 255.99 653.293 252.026L660.744 258.904C658.356 261.818 655.394 264.039 651.86 265.567C648.325 267.096 644.385 267.86 640.038 267.86Z" fill="white"/>
<path d="M728.175 226.305H712.126V216.847H755.831V226.305H739.782V267H728.175V226.305Z" fill="white"/>
<path d="M835.342 267.86C830.136 267.86 825.431 266.737 821.228 264.492C817.072 262.247 813.801 259.167 811.412 255.25C809.072 251.286 807.902 246.843 807.902 241.924C807.902 237.004 809.072 232.586 811.412 228.669C813.801 224.705 817.072 221.6 821.228 219.355C825.431 217.11 830.136 215.988 835.342 215.988C840.549 215.988 845.229 217.11 849.385 219.355C853.54 221.6 856.812 224.705 859.201 228.669C861.589 232.586 862.783 237.004 862.783 241.924C862.783 246.843 861.589 251.286 859.201 255.25C856.812 259.167 853.54 262.247 849.385 264.492C845.229 266.737 840.549 267.86 835.342 267.86ZM835.342 257.973C838.304 257.973 840.978 257.304 843.367 255.966C845.755 254.581 847.618 252.671 848.955 250.235C850.34 247.799 851.033 245.028 851.033 241.924C851.033 238.819 850.34 236.049 848.955 233.613C847.618 231.177 845.755 229.29 843.367 227.953C840.978 226.568 838.304 225.875 835.342 225.875C832.381 225.875 829.706 226.568 827.318 227.953C824.93 229.29 823.043 231.177 821.658 233.613C820.32 236.049 819.652 238.819 819.652 241.924C819.652 245.028 820.32 247.799 821.658 250.235C823.043 252.671 824.93 254.581 827.318 255.966C829.706 257.304 832.381 257.973 835.342 257.973Z" fill="white"/>
<path d="M952.47 267L942.798 253.029H942.225H932.123V267H920.516V216.847H942.225C946.667 216.847 950.512 217.588 953.76 219.069C957.056 220.549 959.587 222.651 961.354 225.373C963.122 228.096 964.005 231.32 964.005 235.046C964.005 238.771 963.098 241.995 961.283 244.718C959.516 247.393 956.984 249.447 953.688 250.88L964.937 267H952.47ZM952.255 235.046C952.255 232.228 951.348 230.078 949.533 228.597C947.718 227.069 945.067 226.305 941.58 226.305H932.123V243.787H941.58C945.067 243.787 947.718 243.022 949.533 241.494C951.348 239.965 952.255 237.816 952.255 235.046Z" fill="white"/>
<path d="M419.69 79.3028H403.641V69.845H447.347V79.3028H431.298V120H419.69V79.3028Z" fill="white"/>
<path d="M542.513 69.845V120H530.906V99.4364H508.121V120H496.514V69.845H508.121V89.6204H530.906V69.845H542.513Z" fill="white"/>
<path d="M635.781 110.685V120H596.947V69.845H634.85V79.1595H608.483V90.0503H631.769V99.0782H608.483V110.685H635.781Z" fill="white"/>
</svg>
