<svg width="260" height="44" viewBox="0 0 260 44" fill="none" xmlns="http://www.w3.org/2000/svg">
<g clip-path="url(#clip0)">
<path d="M22.6465 27.6032H19.7332V15.7398L11.1515 25.6852L2.91898 15.7651V27.6032H0V12.2727H3.38703L11.1764 21.5263L19.0446 12.2727H22.6465V27.6032Z" fill="white"/>
<path d="M104.98 14.6032H89.5139V18.6616H99.1166V20.9406H89.5139V27.6032H86.4254V12.2727H104.984L104.98 14.6032Z" fill="white"/>
<path d="M171.17 14.6032H162.146V27.6032H159.053V14.6032H150.01V12.2727H171.17V14.6032Z" fill="white"/>
<path d="M183.99 12.0315C176.893 12.0315 171.271 15.3654 171.271 19.9242C171.271 24.483 177.02 27.8145 184.014 27.8145C191.008 27.8145 196.729 24.5161 196.729 19.9242C196.729 15.3323 191.081 12.0315 183.99 12.0315ZM184.01 25.346C178.642 25.346 174.444 22.998 174.444 19.9238C174.444 16.8427 178.642 14.5037 183.994 14.5037C189.335 14.5037 193.557 16.7822 193.557 19.9238C193.557 23.0654 189.381 25.3464 184.01 25.3464V25.346Z" fill="white"/>
<path d="M137.416 12.0369C130.35 12.0369 124.779 15.3859 124.779 19.9239C124.779 24.468 130.389 27.8219 137.416 27.8219C142.109 27.8219 146.139 26.3214 148.372 24.0481L145.965 22.4144C144.442 24.2 141.189 25.3485 137.416 25.3485C132.082 25.3485 127.909 23.0442 127.909 19.9226C127.909 16.8084 132.134 14.5025 137.416 14.5025C140.698 14.5025 143.546 15.4333 145.209 16.7268L147.605 15.1012C145.309 13.2172 141.631 12.0369 137.416 12.0369Z" fill="white"/>
<path d="M45.6988 27.6032H49.1598L38.3281 12.2727H35.8183L24.9891 27.6032H28.4443L31.8902 22.7254H42.2555L45.6988 27.6032ZM33.4793 20.4607L37.0734 15.3624L40.6638 20.4607H33.4793Z" fill="white"/>
<path d="M121.216 27.6032H124.669L113.839 12.2727H111.325L100.496 27.6032H103.956L107.399 22.7254H117.769L121.216 27.6032ZM108.991 20.4607L112.58 15.3624L116.172 20.4607H108.991Z" fill="white"/>
<path d="M64.7921 19.594L73.7765 12.2727H69.6641L62.73 17.9187L55.8023 12.2727H51.6863L60.676 19.594L50.8784 27.6032H54.9908L62.73 21.2722L70.4748 27.6032H74.5925L64.7921 19.594Z" fill="white"/>
<path d="M199.717 12.2148V27.6029H202.809V21.4627H211.273L217.358 27.6029H221.034L214.941 21.4002C217.678 21.4035 220.583 19.2887 220.583 16.8422C220.583 14.3958 218.033 12.2148 213.995 12.2148H199.717ZM202.807 14.5972H214.44C215.733 14.5972 217.434 15.4316 217.434 16.8757C217.434 18.6193 215.687 19.1719 214.167 19.1719H202.809L202.807 14.5976V14.5972Z" fill="white"/>
<path d="M253.244 30.0517C253.05 29.8749 252.849 29.6911 252.661 29.5065C252.661 29.5065 251.64 28.5238 251.15 27.9333C251.008 27.7531 248.752 25.0555 248.752 25.0555L247.177 23.1768C246.482 22.3461 245.865 21.5799 245.288 20.8353C244.804 20.2072 244.174 19.7293 244.355 19.0015C244.525 18.2811 247.142 14.9394 248.391 13.42C248.391 13.42 249.407 12.2017 250.861 10.4647V10.4806C253.56 7.26719 257.797 2.27139 260.002 -0.00146484C260.002 -0.00146484 257.696 0.135764 255.256 2.71821C254.055 3.99452 243.151 15.1015 242.771 15.4327C242.204 15.931 241.734 15.7705 241.318 15.3719C240.993 15.0599 239.916 13.6492 239.316 12.7257C238.53 11.5111 237.681 10.3071 237.062 9.00134C237.029 8.92293 236.992 8.86616 236.966 8.81306L236.964 8.8053L236.961 8.79713L236.916 8.71545C236.74 8.35645 236.66 8.20942 236.603 7.95252C236.55 7.72381 236.498 7.37542 236.391 6.67539L236.358 6.42625L236.35 6.4189V6.40665C236.222 4.81912 235.827 3.64001 235.178 2.89628C234.609 2.22769 233.953 2.09618 233.731 2.0729C233.723 2.07211 233.715 2.07211 233.707 2.0729C233.616 2.06218 233.524 2.05931 233.432 2.06433C232.574 2.18277 231.855 2.70718 231.286 3.63429C231.182 3.82794 231.092 4.02918 231.019 4.2363C230.868 4.64918 230.761 5.07707 230.702 5.51262C230.576 6.52632 230.766 7.39666 231.264 8.102C231.554 8.46141 232.061 8.92293 232.554 9.37301C232.898 9.68953 233.221 9.97992 233.468 10.2327C234.577 11.3763 235.436 12.7127 236.327 14.0131C236.999 15.0002 237.765 15.9326 238.432 16.93C238.581 17.1706 238.722 17.3883 238.837 17.5884C238.855 17.6115 238.869 17.6369 238.881 17.6639C239.371 18.4726 239.541 19.0117 238.893 19.9576C238.617 20.366 237.401 21.8801 236.756 22.703C235.778 23.9572 234.81 25.2141 233.851 26.474C232.054 28.8285 230.303 31.2223 228.756 33.7279C227.93 35.0586 226.75 36.6134 226.831 38.2577C226.966 41.0758 230.208 41.2233 232.015 39.8256C232.767 39.2465 233.18 38.6723 232.672 38.2871C231.716 37.5642 231.899 36.4545 233.389 33.663C233.931 32.626 237.858 27.3296 241 23.1535C241 23.1535 241.349 22.6867 241.341 22.6989C241.481 22.5131 241.716 22.2595 242.077 22.2595C242.424 22.2558 242.682 22.6989 242.911 22.9946C244.621 25.2553 245.306 26.2061 246.802 28.5577C247.235 29.2345 247.834 30.4099 248.22 31.1904C248.215 31.1884 248.21 31.186 248.206 31.1831L248.213 31.1884C248.669 31.9968 249.052 32.8442 249.358 33.7206C249.661 34.5525 249.993 35.4899 250.842 36.1552C251.223 36.4437 251.676 36.6205 252.152 36.6657C252.163 36.6657 252.169 36.6657 252.176 36.6657C253.72 36.7972 255.055 35.6038 255.209 33.955C255.222 33.8389 255.228 33.7222 255.225 33.6054C255.202 32.666 254.833 31.7675 254.098 30.8804C253.921 30.6795 253.593 30.3748 253.244 30.0517Z" fill="white"/>
<path d="M24.758 43.5304H23.5875V35.2166H21.2072V34.1956H27.1518V35.2166H24.758V43.5304Z" fill="white"/>
<path d="M33.6286 43.5304H32.4585V39.0329H29.1989V43.5304H28.03V34.1956H29.1989V38.0135H32.4572V34.1956H33.6274L33.6286 43.5304Z" fill="white"/>
<path d="M34.9056 34.1956H39.8127V35.2166H36.0757V38.1454H39.6V39.1664H36.0757V42.5134H39.9724V43.5345H34.9056V34.1956Z" fill="white"/>
<path d="M44.2818 34.1956H46.25L48.1516 41.5957H48.1785L50.0801 34.1956H52.0483V43.5308H50.8782V35.3718H50.8516L48.7503 43.5304H47.5798L45.4785 35.3718H45.454V43.5304H44.2818V34.1956Z" fill="white"/>
<path d="M55.4795 34.1956H57.0491L59.6025 43.5308H58.3773L57.6989 40.9684H54.6668L53.9618 43.5308H52.7402L55.4795 34.1956ZM54.9077 40.027H57.4616L56.2514 35.5164H56.2249L54.9077 40.027Z" fill="white"/>
<path d="M60.2678 34.1956H61.4379V38.7188H61.4645L64.7494 34.1956H66.0527L63.1795 38.0915L66.2912 43.5304H64.9888L62.4222 39.0329L61.4379 40.3533V43.5304H60.2678V34.1956Z" fill="white"/>
<path d="M66.9174 34.1956H71.8249V35.2166H68.0879V38.1454H71.6121V39.1664H68.0879V42.5134H71.9842V43.5345H66.9174V34.1956Z" fill="white"/>
<path d="M73.0222 39.3076H76.2675V40.3287H73.0222V39.3076Z" fill="white"/>
<path d="M77.6497 34.1956H78.8219V40.7589C78.8219 42.132 79.274 42.7724 80.4311 42.7724C81.6813 42.7724 82.0533 42.0662 82.0533 40.7589V34.1956H83.2239V40.7589C83.2239 42.5502 82.2931 43.7138 80.4311 43.7138C78.5291 43.7138 77.6514 42.6809 77.6514 40.7589L77.6497 34.1956Z" fill="white"/>
<path d="M84.3926 34.1956H86.8129C87.6375 34.1956 89.7535 34.1956 89.7535 36.876C89.7535 38.6147 88.6234 39.5822 87.0139 39.5822H85.5644V43.5308H84.3926V34.1956ZM85.5627 38.6412H86.9591C87.8103 38.6412 88.5287 38.0657 88.5287 36.8237C88.5287 35.8027 88.0365 35.137 86.8795 35.137H85.5627V38.6412Z" fill="white"/>
<path d="M99.9663 38.863C99.9663 41.2163 99.5272 43.7134 96.9072 43.7134C94.2872 43.7134 93.8485 41.2163 93.8485 38.863C93.8485 36.5097 94.2872 34.0122 96.9072 34.0122C99.5272 34.0122 99.9663 36.5097 99.9663 38.863ZM95.0718 38.863C95.0718 41.0203 95.2846 42.772 96.9072 42.772C98.5299 42.772 98.7426 41.0203 98.7426 38.863C98.7426 36.7057 98.5299 34.954 96.9072 34.954C95.2846 34.954 95.0718 36.7057 95.0718 38.863Z" fill="white"/>
<path d="M101.11 34.1956H106.017V35.2166H102.28V38.1454H105.804V39.1664H102.28V43.5333H101.11V34.1956Z" fill="white"/>
<path d="M110.233 34.1956H112.201L114.103 41.5957H114.13L116.031 34.1956H118V43.5308H116.829V35.3718H116.805L114.704 43.5304H113.533L111.43 35.3718H111.403V43.5304H110.233V34.1956Z" fill="white"/>
<path d="M121.431 34.1956H123.001L125.554 43.5308H124.329L123.65 40.9684H120.618L119.913 43.5308H118.688L121.431 34.1956ZM120.859 40.027H123.413L122.203 35.5164H122.176L120.859 40.027Z" fill="white"/>
<path d="M126.219 34.1956H127.39V38.7188H127.416L130.701 34.1956H132.005L129.132 38.0919L132.244 43.5308H130.94L128.374 39.0333L127.39 40.3537V43.5308H126.219V34.1956Z" fill="white"/>
<path d="M132.869 34.1956H137.777V35.2166H134.04V38.1454H137.565V39.1664H134.04V42.5134H137.937V43.5345H132.869V34.1956Z" fill="white"/>
<path d="M138.973 39.3076H142.219V40.3287H138.973V39.3076Z" fill="white"/>
<path d="M143.602 34.1956H144.772V40.7589C144.772 42.132 145.224 42.7724 146.381 42.7724C147.631 42.7724 148.004 42.0662 148.004 40.7589V34.1956H149.174V40.7589C149.174 42.5502 148.243 43.7138 146.381 43.7138C144.48 43.7138 143.602 42.6809 143.602 40.7589V34.1956Z" fill="white"/>
<path d="M150.343 34.1956H152.764C153.589 34.1956 155.705 34.1956 155.705 36.876C155.705 38.6147 154.574 39.5822 152.965 39.5822H151.516V43.5308H150.345L150.343 34.1956ZM151.514 38.6412H152.909C153.76 38.6412 154.478 38.0657 154.478 36.8237C154.478 35.8027 153.986 35.137 152.83 35.137H151.513L151.514 38.6412Z" fill="white"/>
<path d="M161.315 34.1956H162.885L165.439 43.5308H164.213L163.535 40.9684H160.506L159.8 43.5308H158.577L161.315 34.1956ZM160.744 40.027H163.297L162.087 35.5164H162.06L160.744 40.027Z" fill="white"/>
<path d="M166.104 34.1956H169.176C170.665 34.1956 171.609 35.0585 171.609 36.5362C171.609 37.5573 171.25 38.6281 170.147 38.8895V38.9157C170.971 39.0072 171.437 39.6737 171.49 40.4713L171.572 42.0662C171.625 43.0995 171.798 43.3605 172.077 43.5308H170.667C170.468 43.3348 170.375 42.6417 170.348 42.183L170.266 40.7319C170.173 39.4503 169.455 39.3723 168.857 39.3723H167.274V43.5296H166.104V34.1956ZM167.274 38.4317H168.431C169.122 38.4317 170.386 38.4317 170.386 36.6277C170.386 35.7124 169.761 35.137 168.67 35.137H167.274V38.4317Z" fill="white"/>
<path d="M175.666 43.5304H174.496V35.2166H172.115V34.1956H178.06V35.2166H175.666V43.5304Z" fill="white"/>
<path d="M178.937 34.1956H180.108V43.5308H178.937V34.1956Z" fill="white"/>
<path d="M185.68 36.6138C185.68 35.6336 185.321 34.954 184.204 34.954C183.219 34.954 182.634 35.4768 182.634 36.4701C182.634 39.0983 187.116 37.5295 187.116 40.9415C187.116 43.0992 185.507 43.7134 184.163 43.7134C181.943 43.7134 181.291 42.589 181.291 40.6017H182.461C182.461 41.648 182.528 42.772 184.243 42.772C185.174 42.772 185.893 42.1185 185.893 41.1248C185.893 38.4836 181.41 40.0131 181.41 36.5881C181.41 35.7251 181.783 34.0122 184.19 34.0122C185.999 34.0122 186.824 34.9013 186.85 36.6138H185.68Z" fill="white"/>
<path d="M190.92 43.5304H189.749V35.2166H187.369V34.1956H193.313V35.2166H190.919L190.92 43.5304Z" fill="white"/>
<path d="M198.221 36.6138C198.221 35.6336 197.862 34.954 196.745 34.954C195.76 34.954 195.175 35.4768 195.175 36.4701C195.175 39.0983 199.658 37.5295 199.658 40.9415C199.658 43.0992 198.049 43.7134 196.705 43.7134C194.484 43.7134 193.832 42.589 193.832 40.6017H195.002C195.002 41.648 195.069 42.772 196.785 42.772C197.716 42.772 198.434 42.1185 198.434 41.1248C198.434 38.4836 193.952 40.0131 193.952 36.5881C193.952 35.7251 194.324 34.0122 196.732 34.0122C198.54 34.0122 199.365 34.9013 199.392 36.6138H198.221Z" fill="white"/>
</g>
<defs>
<clipPath id="clip0">
<rect width="260" height="43.7136" fill="white"/>
</clipPath>
</defs>
</svg>
